<svg width="140" height="227" viewBox="0 0 140 227" fill="none" xmlns="http://www.w3.org/2000/svg">
<path d="M83.9909 96.9862V161.64L111.99 177.809V113.15L83.9909 96.9862Z" fill="url(#paint0_linear_30_33)"/>
<path d="M0 16.1635V210.136L27.9989 226.299V32.3269L0 16.1635Z" fill="url(#paint1_linear_30_33)"/>
<path d="M83.9909 161.64L55.9977 177.809L83.9909 193.972L111.99 177.809L83.9909 161.64Z" fill="url(#paint2_linear_30_33)"/>
<path d="M83.9909 129.313V96.9862L55.9977 113.15V16.1635L27.9989 32.3269V226.299L55.9977 210.136V145.476L83.9909 129.313Z" fill="url(#paint3_linear_30_33)"/>
<path d="M27.9989 0L0 16.1634L27.9989 32.3268L55.9977 16.1634L27.9989 0Z" fill="url(#paint4_linear_30_33)"/>
<path d="M83.9909 193.972L55.9977 177.809V210.136L83.9909 226.299V193.972Z" fill="url(#paint5_linear_30_33)"/>
<path d="M139.989 96.9862L111.99 113.15V177.809L83.9909 193.972V226.299L140 193.972L139.989 96.9862Z" fill="url(#paint6_linear_30_33)"/>
<path d="M55.9977 80.8227V113.15L83.9909 96.9861L111.99 113.15L139.989 96.9861L83.9796 64.6593L55.9977 80.8227Z" fill="url(#paint7_linear_30_33)"/>
<defs>
<linearGradient id="paint0_linear_30_33" x1="97.9932" y1="177.809" x2="97.9932" y2="96.9862" gradientUnits="userSpaceOnUse">
<stop/>
<stop offset="1" stop-color="#616161"/>
</linearGradient>
<linearGradient id="paint1_linear_30_33" x1="14.0023" y1="226.299" x2="14.0023" y2="16.1635" gradientUnits="userSpaceOnUse">
<stop/>
<stop offset="1" stop-color="#616161"/>
</linearGradient>
<linearGradient id="paint2_linear_30_33" x1="62.996" y1="189.927" x2="104.992" y2="165.685" gradientUnits="userSpaceOnUse">
<stop stop-color="#333333"/>
<stop offset="0.9999" stop-color="#AEADAD"/>
<stop offset="1" stop-color="#C0C0C0"/>
</linearGradient>
<linearGradient id="paint3_linear_30_33" x1="55.9977" y1="226.299" x2="55.9977" y2="16.9725" gradientUnits="userSpaceOnUse">
<stop stop-color="#333333"/>
<stop offset="1" stop-color="#757575"/>
</linearGradient>
<linearGradient id="paint4_linear_30_33" x1="5.82155" y1="28.972" x2="50.3685" y2="3.2474" gradientUnits="userSpaceOnUse">
<stop stop-color="#333333"/>
<stop offset="1" stop-color="#AEADAD"/>
</linearGradient>
<linearGradient id="paint5_linear_30_33" x1="62.996" y1="214.175" x2="76.9926" y2="189.927" gradientUnits="userSpaceOnUse">
<stop/>
<stop offset="1" stop-color="#616161"/>
</linearGradient>
<linearGradient id="paint6_linear_30_33" x1="111.99" y1="208.591" x2="111.99" y2="113.11" gradientUnits="userSpaceOnUse">
<stop stop-color="#333333"/>
<stop offset="1" stop-color="#757575"/>
</linearGradient>
<linearGradient id="paint7_linear_30_33" x1="55.9977" y1="113.15" x2="125.986" y2="72.7382" gradientUnits="userSpaceOnUse">
<stop stop-color="#333333"/>
<stop offset="1" stop-color="#AEADAD"/>
</linearGradient>
</defs>
</svg>
